<svg width="196" height="59" viewBox="0 0 196 59" fill="none" xmlns="http://www.w3.org/2000/svg">
<g filter="url(#filter0_d)">
<path d="M2.14991 49.728C4.05391 49.504 5.60324 48.16 6.79791 45.696C8.02991 43.1947 9.20591 39.0693 10.3259 33.32L15.7579 5.04H27.9099L22.4779 33.32C21.0966 40.6373 19.2672 45.7333 16.9899 48.608C15.7952 50.1013 14.4326 51.1467 12.9019 51.744C11.4086 52.3413 9.84057 52.64 8.19791 52.64C6.55524 52.64 5.21124 52.3413 4.16591 51.744C3.08324 51.1467 2.41124 50.4747 2.14991 49.728ZM57.3348 35.784C57.3348 37.4267 58.1748 38.4907 59.8548 38.976C59.4442 40.3573 58.4362 41.4213 56.8308 42.168C55.4868 42.8027 54.0682 43.12 52.5748 43.12C51.1188 43.12 49.9988 42.9147 49.2148 42.504C48.4682 42.1307 47.8895 41.6267 47.4788 40.992C46.8068 40.0213 46.4708 38.6213 46.4708 36.792C46.4708 35.7093 46.7695 33.6747 47.3668 30.688L48.1508 26.432C48.7855 23.184 49.1028 20.9627 49.1028 19.768C49.1028 17.6773 48.5242 16.632 47.3668 16.632C45.9108 16.632 44.7162 17.696 43.7828 19.824C43.4095 20.6453 43.0922 21.672 42.8308 22.904L39.0228 42L27.7668 43.12L35.6628 2.8L46.9188 1.68L46.4708 3.92C45.4255 9.66933 44.4548 13.5147 43.5588 15.456C45.6495 13.3653 48.6175 12.32 52.4628 12.32C56.5322 12.32 58.9402 13.664 59.6868 16.352C59.9482 17.2107 60.0788 18.0133 60.0788 18.76C60.0788 19.5067 60.0415 20.1787 59.9668 20.776C59.9295 21.336 59.8175 22.1387 59.6308 23.184L58.9028 27.216L57.6148 33.544C57.4282 34.4027 57.3348 35.1493 57.3348 35.784ZM62.7056 38.696C62.7056 37.2773 63.2469 36.176 64.3296 35.392C65.4496 34.608 66.7936 34.216 68.3616 34.216C69.9296 34.216 71.1803 34.608 72.1136 35.392C73.0843 36.176 73.5696 37.2773 73.5696 38.696C73.5696 40.1147 73.0283 41.216 71.9456 42C70.9003 42.7467 69.5936 43.12 68.0256 43.12C66.4576 43.12 65.1696 42.7467 64.1616 42C63.1909 41.216 62.7056 40.1147 62.7056 38.696ZM82.7562 14.728C81.4869 13.7573 80.8522 12.2453 80.8522 10.192C80.8522 8.10133 81.5242 6.51467 82.8682 5.432C84.2496 4.34933 86.1162 3.808 88.4682 3.808C89.9616 3.808 92.4816 4.06933 96.0282 4.592L99.8362 5.152C101.106 5.30133 102.394 5.376 103.7 5.376C105.044 5.376 106.164 5.096 107.06 4.536C108.404 5.73067 109.076 7.18667 109.076 8.904C109.076 10.6213 108.311 12.096 106.78 13.328C105.212 14.6347 103.42 15.288 101.404 15.288C100.434 15.288 99.1642 15.1573 97.5962 14.896C95.7669 20.6453 94.8522 25.5173 94.8522 29.512C94.8522 33.5067 95.8602 36.5493 97.8762 38.64C96.9429 40.32 95.7856 41.4773 94.4042 42.112C93.0229 42.784 91.2869 43.12 89.1962 43.12C87.1429 43.12 85.4629 42.56 84.1562 41.44C82.8869 40.2827 82.2522 38.528 82.2522 36.176C82.2522 33.4507 82.9989 29.848 84.4922 25.368C85.9856 20.9253 87.8522 17.0053 90.0922 13.608C89.0096 13.496 87.9082 13.44 86.7882 13.44C84.4736 13.44 83.1296 13.8693 82.7562 14.728ZM127.37 32.536C128.304 33.1707 128.77 34.1973 128.77 35.616C128.77 36.9973 128.416 38.136 127.706 39.032C126.997 39.928 126.064 40.6747 124.906 41.272C122.517 42.504 120.034 43.12 117.458 43.12C114.882 43.12 112.829 42.84 111.298 42.28C109.805 41.72 108.554 40.9173 107.546 39.872C105.568 37.8933 104.578 35.0933 104.578 31.472C104.578 25.8347 106.109 21.2987 109.17 17.864C112.456 14.168 116.954 12.32 122.666 12.32C126.213 12.32 128.864 13.0667 130.618 14.56C131.925 15.68 132.578 17.1547 132.578 18.984C132.578 25.5547 126.904 28.84 115.554 28.84C115.405 29.8107 115.33 30.7067 115.33 31.528C115.33 33.2453 115.704 34.44 116.45 35.112C117.234 35.7467 118.336 36.064 119.754 36.064C121.173 36.064 122.629 35.7467 124.122 35.112C125.653 34.44 126.736 33.5813 127.37 32.536ZM115.946 26.432C118.597 26.432 120.688 25.6107 122.218 23.968C123.749 22.4 124.514 20.3653 124.514 17.864C124.514 17.0053 124.346 16.352 124.01 15.904C123.712 15.4187 123.245 15.176 122.61 15.176C121.976 15.176 121.378 15.3067 120.818 15.568C120.296 15.792 119.754 16.3147 119.194 17.136C117.813 19.0027 116.73 22.1013 115.946 26.432ZM161.991 18.704C161.991 20.272 161.338 21.5413 160.031 22.512C158.724 23.4827 157.007 23.968 154.879 23.968C153.983 23.968 153.274 23.8373 152.751 23.576C153.162 22.6053 153.423 21.5227 153.535 20.328C153.684 19.096 153.759 18.312 153.759 17.976C153.759 16.408 153.218 15.624 152.135 15.624C151.388 15.624 150.586 16.0907 149.727 17.024C148.906 17.9573 148.14 19.152 147.431 20.608C145.863 23.968 145.079 27.3467 145.079 30.744C145.079 32.6107 145.434 33.9733 146.143 34.832C146.852 35.6533 147.991 36.064 149.559 36.064C151.724 36.064 153.666 35.168 155.383 33.376C155.868 32.816 156.242 32.2187 156.503 31.584C157.922 32.3307 158.631 33.7307 158.631 35.784C158.631 37.8747 157.474 39.6107 155.159 40.992C152.77 42.4107 149.671 43.12 145.863 43.12C138.284 43.12 134.495 39.1067 134.495 31.08C134.495 25.2187 136.156 20.608 139.479 17.248C142.69 13.9627 147.244 12.32 153.143 12.32C159.042 12.32 161.991 14.448 161.991 18.704ZM191.647 35.784C191.647 37.4267 192.487 38.4907 194.167 38.976C193.757 40.3573 192.749 41.4213 191.143 42.168C189.799 42.8027 188.381 43.12 186.887 43.12C185.431 43.12 184.311 42.9147 183.527 42.504C182.781 42.1307 182.202 41.6267 181.791 40.992C181.119 40.0213 180.783 38.6213 180.783 36.792C180.783 35.7093 181.082 33.6747 181.679 30.688L182.463 26.432C183.098 23.184 183.415 20.9627 183.415 19.768C183.415 17.6773 182.837 16.632 181.679 16.632C180.223 16.632 179.029 17.696 178.095 19.824C177.722 20.6453 177.405 21.672 177.143 22.904L173.335 42L162.079 43.12L169.975 2.8L181.231 1.68L180.783 3.92C179.738 9.66933 178.767 13.5147 177.871 15.456C179.962 13.3653 182.93 12.32 186.775 12.32C190.845 12.32 193.253 13.664 193.999 16.352C194.261 17.2107 194.391 18.0133 194.391 18.76C194.391 19.5067 194.354 20.1787 194.279 20.776C194.242 21.336 194.13 22.1387 193.943 23.184L193.215 27.216L191.927 33.544C191.741 34.4027 191.647 35.1493 191.647 35.784Z" fill="#043144"/>
<path d="M2.14991 49.728L2.03306 48.7349L0.793849 48.8806L1.20605 50.0584L2.14991 49.728ZM6.79791 45.696L5.9008 45.2541L5.89809 45.2597L6.79791 45.696ZM10.3259 33.32L11.3075 33.5112L11.308 33.5086L10.3259 33.32ZM15.7579 5.04V4.04H14.9317L14.7759 4.85137L15.7579 5.04ZM27.9099 5.04L28.892 5.22863L29.1203 4.04H27.9099V5.04ZM22.4779 33.32L21.4959 33.1314L21.4953 33.1345L22.4779 33.32ZM16.9899 48.608L17.7708 49.2327L17.7737 49.229L16.9899 48.608ZM12.9019 51.744L12.5384 50.8124L12.5305 50.8155L12.9019 51.744ZM4.16591 51.744L4.66204 50.8758L4.65554 50.872L4.64898 50.8684L4.16591 51.744ZM2.26675 50.7212C4.64209 50.4417 6.42358 48.7602 7.69772 46.1323L5.89809 45.2597C4.7829 47.5598 3.46572 48.5663 2.03306 48.7349L2.26675 50.7212ZM7.695 46.1378C8.98925 43.5101 10.1848 39.2739 11.3075 33.5112L9.34436 33.1288C8.22696 38.8647 7.07056 42.8792 5.90082 45.2542L7.695 46.1378ZM11.308 33.5086L16.74 5.22863L14.7759 4.85137L9.34386 33.1314L11.308 33.5086ZM15.7579 6.04H27.9099V4.04H15.7579V6.04ZM26.9279 4.85137L21.4959 33.1314L23.46 33.5086L28.892 5.22863L26.9279 4.85137ZM21.4953 33.1345C20.1191 40.4246 18.3237 45.3139 16.2061 47.987L17.7737 49.229C20.2108 46.1527 22.0741 40.8501 23.4606 33.5055L21.4953 33.1345ZM16.209 47.9833C15.1059 49.3622 13.8803 50.2888 12.5384 50.8124L13.2654 52.6756C14.9849 52.0046 16.4845 50.8405 17.7708 49.2327L16.209 47.9833ZM12.5305 50.8155C11.1579 51.3646 9.71613 51.64 8.19791 51.64V53.64C9.96502 53.64 11.6593 53.3181 13.2733 52.6725L12.5305 50.8155ZM8.19791 51.64C6.66851 51.64 5.51107 51.3609 4.66204 50.8758L3.66977 52.6122C4.91141 53.3218 6.44197 53.64 8.19791 53.64V51.64ZM4.64898 50.8684C3.66576 50.326 3.2387 49.8117 3.09376 49.3977L1.20605 50.0584C1.58378 51.1376 2.50072 51.9674 3.68283 52.6196L4.64898 50.8684ZM59.8548 38.976L60.8134 39.261L61.1006 38.295L60.1324 38.0153L59.8548 38.976ZM56.8308 42.168L56.4091 41.2613L56.4038 41.2638L56.8308 42.168ZM49.2148 42.504L49.6789 41.6182L49.6705 41.6138L49.6621 41.6096L49.2148 42.504ZM47.4788 40.992L48.3184 40.4487L48.3099 40.4356L48.301 40.4228L47.4788 40.992ZM47.3668 30.688L48.3474 30.8841L48.3489 30.8766L48.3503 30.8692L47.3668 30.688ZM48.1508 26.432L47.1693 26.2402L47.1674 26.2508L48.1508 26.432ZM43.7828 19.824L44.6933 20.2378L44.6986 20.2257L43.7828 19.824ZM42.8308 22.904L41.8525 22.6965L41.8502 22.7084L42.8308 22.904ZM39.0228 42L39.1219 42.9951L39.8587 42.9218L40.0035 42.1956L39.0228 42ZM27.7668 43.12L26.7855 42.9278L26.5269 44.2483L27.8659 44.1151L27.7668 43.12ZM35.6628 2.8L35.5638 1.80491L34.8243 1.8785L34.6815 2.60781L35.6628 2.8ZM46.9188 1.68L47.8994 1.87611L48.1644 0.551122L46.8198 0.684912L46.9188 1.68ZM46.4708 3.92L45.4903 3.72388L45.4885 3.73248L45.487 3.74111L46.4708 3.92ZM43.5588 15.456L42.6509 15.0369L44.266 16.1631L43.5588 15.456ZM59.6868 16.352L58.7233 16.6196L58.7266 16.6314L58.7302 16.6432L59.6868 16.352ZM59.9668 20.776L58.9746 20.652L58.971 20.6806L58.9691 20.7095L59.9668 20.776ZM59.6308 23.184L60.6149 23.3617L60.6153 23.3598L59.6308 23.184ZM58.9028 27.216L59.8828 27.4155L59.885 27.4046L59.8869 27.3937L58.9028 27.216ZM57.6148 33.544L58.5921 33.7564L58.5948 33.7434L57.6148 33.544ZM56.3348 35.784C56.3348 36.7811 56.593 37.6901 57.18 38.4336C57.7623 39.1713 58.5948 39.6529 59.5773 39.9367L60.1324 38.0153C59.4349 37.8138 59.0073 37.5207 58.7497 37.1944C58.4967 36.8739 58.3348 36.4296 58.3348 35.784H56.3348ZM58.8963 38.691C58.5855 39.7364 57.8191 40.6055 56.4091 41.2613L57.2526 43.0747C59.0533 42.2372 60.3028 40.9782 60.8134 39.261L58.8963 38.691ZM56.4038 41.2638C55.194 41.8351 53.9212 42.12 52.5748 42.12V44.12C54.2151 44.12 55.7797 43.7703 57.2579 43.0722L56.4038 41.2638ZM52.5748 42.12C51.1882 42.12 50.2557 41.9203 49.6789 41.6182L48.7508 43.3898C49.742 43.909 51.0495 44.12 52.5748 44.12V42.12ZM49.6621 41.6096C49.0581 41.3076 48.6221 40.9181 48.3184 40.4487L46.6393 41.5353C47.1569 42.3352 47.8783 42.9538 48.7676 43.3984L49.6621 41.6096ZM48.301 40.4228C47.7925 39.6882 47.4708 38.5219 47.4708 36.792H45.4708C45.4708 38.7208 45.8212 40.3545 46.6567 41.5612L48.301 40.4228ZM47.4708 36.792C47.4708 35.8232 47.7477 33.8827 48.3474 30.8841L46.3863 30.4919C45.7913 33.4666 45.4708 35.5954 45.4708 36.792H47.4708ZM48.3503 30.8692L49.1343 26.6132L47.1674 26.2508L46.3834 30.5068L48.3503 30.8692ZM49.1323 26.6238C49.7649 23.3863 50.1028 21.0736 50.1028 19.768H48.1028C48.1028 20.8518 47.8061 22.9817 47.1694 26.2402L49.1323 26.6238ZM50.1028 19.768C50.1028 18.6632 49.9556 17.6757 49.5437 16.9317C49.3294 16.5446 49.0344 16.2075 48.6422 15.9713C48.2483 15.7342 47.8116 15.632 47.3668 15.632V17.632C47.5008 17.632 47.5704 17.6605 47.6105 17.6847C47.6523 17.7098 47.7189 17.7648 47.794 17.9003C47.9607 18.2016 48.1028 18.7822 48.1028 19.768H50.1028ZM47.3668 15.632C45.3046 15.632 43.8541 17.1718 42.8671 19.4223L44.6986 20.2257C45.5782 18.2202 46.5171 17.632 47.3668 17.632V15.632ZM42.8725 19.4102C42.4599 20.3178 42.1236 21.4191 41.8526 22.6965L43.8091 23.1115C44.0608 21.9249 44.3591 20.9728 44.6932 20.2378L42.8725 19.4102ZM41.8502 22.7084L38.0422 41.8044L40.0035 42.1956L43.8115 23.0996L41.8502 22.7084ZM38.9238 41.0049L27.6678 42.1249L27.8659 44.1151L39.1219 42.9951L38.9238 41.0049ZM28.7482 43.3122L36.6442 2.99218L34.6815 2.60781L26.7855 42.9278L28.7482 43.3122ZM35.7619 3.79508L47.0179 2.67508L46.8198 0.684912L35.5638 1.80491L35.7619 3.79508ZM45.9383 1.48388L45.4903 3.72388L47.4514 4.11612L47.8994 1.87611L45.9383 1.48388ZM45.487 3.74111C44.4393 9.50335 43.4861 13.2273 42.6509 15.0369L44.4668 15.8751C45.4236 13.802 46.4117 9.83531 47.4547 4.09889L45.487 3.74111ZM44.266 16.1631C46.1175 14.3115 48.7996 13.32 52.4628 13.32V11.32C48.4354 11.32 45.1815 12.4191 42.8517 14.7489L44.266 16.1631ZM52.4628 13.32C54.4023 13.32 55.8328 13.6427 56.8335 14.2012C57.8012 14.7413 58.4205 15.5296 58.7233 16.6196L60.6504 16.0844C60.2065 14.4864 59.2485 13.2587 57.8082 12.4548C56.4009 11.6693 54.5927 11.32 52.4628 11.32V13.32ZM58.7302 16.6432C58.9684 17.4259 59.0788 18.1296 59.0788 18.76H61.0788C61.0788 17.8971 60.928 16.9955 60.6435 16.0608L58.7302 16.6432ZM59.0788 18.76C59.0788 19.4746 59.043 20.1042 58.9746 20.652L60.9591 20.9C61.04 20.2532 61.0788 19.5387 61.0788 18.76H59.0788ZM58.9691 20.7095C58.9354 21.2137 58.8312 21.9732 58.6464 23.0082L60.6153 23.3598C60.8038 22.3041 60.9236 21.4583 60.9646 20.8425L58.9691 20.7095ZM58.6468 23.0063L57.9188 27.0383L59.8869 27.3937L60.6149 23.3617L58.6468 23.0063ZM57.9229 27.0165L56.6349 33.3445L58.5948 33.7434L59.8828 27.4155L57.9229 27.0165ZM56.6377 33.3316C56.4412 34.2355 56.3348 35.0566 56.3348 35.784H58.3348C58.3348 35.2421 58.4152 34.5698 58.592 33.7564L56.6377 33.3316ZM64.3296 35.392L63.7561 34.5728L63.7496 34.5774L63.7431 34.5821L64.3296 35.392ZM72.1136 35.392L71.4704 36.1577L71.4778 36.1639L71.4853 36.1699L72.1136 35.392ZM71.9456 42L72.5268 42.8138L72.5321 42.8099L71.9456 42ZM64.1616 42L63.5333 42.7779L63.5495 42.7911L63.5664 42.8036L64.1616 42ZM63.7056 38.696C63.7056 37.5749 64.1113 36.7847 64.9161 36.2019L63.7431 34.5821C62.3826 35.5673 61.7056 36.9797 61.7056 38.696H63.7056ZM64.9031 36.2112C65.8311 35.5616 66.9676 35.216 68.3616 35.216V33.216C66.6196 33.216 65.0681 33.6544 63.7561 34.5728L64.9031 36.2112ZM68.3616 35.216C69.763 35.216 70.7637 35.564 71.4704 36.1577L72.7568 34.6263C71.5969 33.652 70.0962 33.216 68.3616 33.216V35.216ZM71.4853 36.1699C72.1868 36.7366 72.5696 37.5328 72.5696 38.696H74.5696C74.5696 37.0219 73.9817 35.6154 72.7419 34.6141L71.4853 36.1699ZM72.5696 38.696C72.5696 39.8171 72.1639 40.6073 71.3591 41.1901L72.5321 42.8099C73.8926 41.8247 74.5696 40.4123 74.5696 38.696H72.5696ZM71.3644 41.1863C70.5231 41.7872 69.4319 42.12 68.0256 42.12V44.12C69.7553 44.12 71.2774 43.7062 72.5268 42.8137L71.3644 41.1863ZM68.0256 42.12C66.6176 42.12 65.5535 41.7866 64.7568 41.1964L63.5664 42.8036C64.7856 43.7067 66.2976 44.12 68.0256 44.12V42.12ZM64.7899 41.2221C64.0884 40.6554 63.7056 39.8592 63.7056 38.696H61.7056C61.7056 40.3701 62.2935 41.7766 63.5333 42.7779L64.7899 41.2221ZM82.7562 14.728L82.1488 15.5224L83.1638 16.2986L83.6733 15.1267L82.7562 14.728ZM82.8682 5.432L82.2513 4.64487L82.2409 4.65324L82.8682 5.432ZM96.0282 4.592L95.8824 5.58131L95.8827 5.58136L96.0282 4.592ZM99.8362 5.152L99.6907 6.14136L99.705 6.14346L99.7194 6.14515L99.8362 5.152ZM107.06 4.536L107.725 3.78859L107.165 3.29123L106.53 3.688L107.06 4.536ZM106.78 13.328L106.153 12.549L106.147 12.5543L106.14 12.5598L106.78 13.328ZM97.5962 14.896L97.7606 13.9096L96.906 13.7672L96.6433 14.5928L97.5962 14.896ZM97.8762 38.64L98.7504 39.1256L99.1098 38.4786L98.5961 37.9459L97.8762 38.64ZM94.4042 42.112L93.9867 41.2033L93.9767 41.2079L93.9668 41.2128L94.4042 42.112ZM84.1562 41.44L83.4825 42.179L83.4938 42.1893L83.5054 42.1993L84.1562 41.44ZM84.4922 25.368L83.5443 25.0494L83.5435 25.0518L84.4922 25.368ZM90.0922 13.608L90.9271 14.1585L91.8341 12.7829L90.1951 12.6133L90.0922 13.608ZM83.3637 13.9336C82.4099 13.2043 81.8522 12.0311 81.8522 10.192H79.8522C79.8522 12.4596 80.5639 14.3104 82.1488 15.5224L83.3637 13.9336ZM81.8522 10.192C81.8522 8.33316 82.4373 7.06324 83.4955 6.21075L82.2409 4.65324C80.6111 5.96609 79.8522 7.86951 79.8522 10.192H81.8522ZM83.4851 6.21905C84.6388 5.31479 86.2641 4.808 88.4682 4.808V2.808C85.9684 2.808 83.8603 3.38387 82.2513 4.64494L83.4851 6.21905ZM88.4682 4.808C89.8807 4.808 92.3359 5.05867 95.8824 5.58131L96.174 3.60268C92.6272 3.07999 90.0424 2.808 88.4682 2.808V4.808ZM95.8827 5.58136L99.6907 6.14136L99.9817 4.16264L96.1737 3.60264L95.8827 5.58136ZM99.7194 6.14515C101.028 6.29914 102.355 6.376 103.7 6.376V4.376C102.432 4.376 101.183 4.30352 99.9531 4.15885L99.7194 6.14515ZM103.7 6.376C105.181 6.376 106.497 6.06705 107.59 5.384L106.53 3.688C105.831 4.12495 104.907 4.376 103.7 4.376V6.376ZM106.396 5.28341C107.538 6.29845 108.076 7.48723 108.076 8.904H110.076C110.076 6.8861 109.271 5.16288 107.725 3.78859L106.396 5.28341ZM108.076 8.904C108.076 10.2726 107.486 11.476 106.153 12.549L107.407 14.107C109.135 12.716 110.076 10.97 110.076 8.904H108.076ZM106.14 12.5598C104.749 13.7187 103.183 14.288 101.404 14.288V16.288C103.657 16.288 105.675 15.5506 107.42 14.0962L106.14 12.5598ZM101.404 14.288C100.512 14.288 99.3039 14.1668 97.7606 13.9096L97.4318 15.8824C99.0246 16.1478 100.355 16.288 101.404 16.288V14.288ZM96.6433 14.5928C94.797 20.3955 93.8522 25.3762 93.8522 29.512H95.8522C95.8522 25.6585 96.7368 20.8952 98.5491 15.1992L96.6433 14.5928ZM93.8522 29.512C93.8522 33.6668 94.9021 36.9964 97.1564 39.3341L98.5961 37.9459C96.8183 36.1023 95.8522 33.3465 95.8522 29.512H93.8522ZM97.0021 38.1544C96.1445 39.6979 95.1289 40.6786 93.9867 41.2033L94.8217 43.0207C96.4423 42.2761 97.7412 40.9421 98.7504 39.1256L97.0021 38.1544ZM93.9668 41.2128C92.7617 41.799 91.1872 42.12 89.1962 42.12V44.12C91.3866 44.12 93.2841 43.769 94.8417 43.0112L93.9668 41.2128ZM89.1962 42.12C87.3333 42.12 85.8988 41.6166 84.807 40.6807L83.5054 42.1993C85.0269 43.5034 86.9525 44.12 89.1962 44.12V42.12ZM84.83 40.701C83.8366 39.7954 83.2522 38.3546 83.2522 36.176H81.2522C81.2522 38.7014 81.9371 40.77 83.4825 42.179L84.83 40.701ZM83.2522 36.176C83.2522 33.609 83.9605 30.1254 85.4409 25.6842L83.5435 25.0518C82.0373 29.5706 81.2522 33.2923 81.2522 36.176H83.2522ZM85.4401 25.6866C86.91 21.3137 88.7412 17.4738 90.9271 14.1585L89.2574 13.0575C86.9633 16.5369 85.0611 20.537 83.5443 25.0494L85.4401 25.6866ZM90.1951 12.6133C89.0773 12.4977 87.9416 12.44 86.7882 12.44V14.44C87.8748 14.44 88.9418 14.4943 89.9893 14.6027L90.1951 12.6133ZM86.7882 12.44C85.5848 12.44 84.553 12.5497 83.7399 12.8094C82.9336 13.067 82.1886 13.5254 81.8391 14.3293L83.6733 15.1267C83.6971 15.0719 83.8109 14.8863 84.3485 14.7146C84.8795 14.545 85.677 14.44 86.7882 14.44V12.44ZM127.37 32.536L127.933 31.7091L127.062 31.117L126.515 32.017L127.37 32.536ZM127.706 39.032L128.49 39.6527L128.49 39.6527L127.706 39.032ZM124.906 41.272L125.365 42.1608L125.365 42.1606L124.906 41.272ZM111.298 42.28L110.947 43.2164L110.955 43.2191L111.298 42.28ZM107.546 39.872L108.266 39.1779L108.26 39.1713L108.253 39.1649L107.546 39.872ZM109.17 17.864L109.917 18.5294L109.918 18.5284L109.17 17.864ZM130.618 14.56L131.269 13.8007L131.266 13.7985L130.618 14.56ZM115.554 28.84V27.84H114.696L114.566 28.6879L115.554 28.84ZM116.45 35.112L115.781 35.8553L115.801 35.8728L115.821 35.8892L116.45 35.112ZM124.122 35.112L124.513 36.0324L124.524 36.0276L124.122 35.112ZM115.946 26.432L114.962 26.2539L114.749 27.432H115.946V26.432ZM122.218 23.968L121.503 23.2695L121.495 23.2778L121.487 23.2863L122.218 23.968ZM124.01 15.904L123.159 16.4281L123.183 16.4672L123.21 16.504L124.01 15.904ZM120.818 15.568L121.212 16.4871L121.227 16.4809L121.241 16.4742L120.818 15.568ZM119.194 17.136L119.998 17.7308L120.01 17.7153L120.021 17.6993L119.194 17.136ZM126.808 33.3629C127.397 33.7633 127.77 34.4325 127.77 35.616H129.77C129.77 33.9621 129.21 32.578 127.933 31.7091L126.808 33.3629ZM127.77 35.616C127.77 36.8206 127.464 37.7266 126.922 38.4113L128.49 39.6527C129.367 38.5454 129.77 37.1741 129.77 35.616H127.77ZM126.922 38.4113C126.313 39.1813 125.496 39.8421 124.448 40.3834L125.365 42.1606C126.631 41.5072 127.681 40.6747 128.49 39.6527L126.922 38.4113ZM124.448 40.3832C122.194 41.5454 119.868 42.12 117.458 42.12V44.12C120.201 44.12 122.84 43.4626 125.365 42.1608L124.448 40.3832ZM117.458 42.12C114.94 42.12 113.018 41.8442 111.642 41.3409L110.955 43.2191C112.64 43.8358 114.825 44.12 117.458 44.12V42.12ZM111.649 41.3437C110.282 40.8307 109.161 40.1058 108.266 39.1779L106.826 40.5661C107.948 41.7288 109.328 42.6093 110.947 43.2163L111.649 41.3437ZM108.253 39.1649C106.513 37.4244 105.578 34.9096 105.578 31.472H103.578C103.578 35.2771 104.622 38.3623 106.839 40.5791L108.253 39.1649ZM105.578 31.472C105.578 26.0223 107.053 21.7419 109.917 18.5294L108.424 17.1986C105.164 20.8554 103.578 25.6471 103.578 31.472H105.578ZM109.918 18.5284C112.983 15.0799 117.191 13.32 122.666 13.32V11.32C116.718 11.32 111.928 13.2561 108.423 17.1996L109.918 18.5284ZM122.666 13.32C126.098 13.32 128.472 14.0463 129.97 15.3215L131.266 13.7985C129.256 12.0871 126.328 11.32 122.666 11.32V13.32ZM129.967 15.3193C131.037 16.2361 131.578 17.4257 131.578 18.984H133.578C133.578 16.8837 132.813 15.1239 131.269 13.8007L129.967 15.3193ZM131.578 18.984C131.578 21.9134 130.349 24.0472 127.821 25.5106C125.21 27.0221 121.165 27.84 115.554 27.84V29.84C121.293 29.84 125.76 29.0152 128.823 27.2414C131.97 25.4195 133.578 22.6253 133.578 18.984H131.578ZM114.566 28.6879C114.41 29.6995 114.33 30.647 114.33 31.528H116.33C116.33 30.7663 116.4 29.9218 116.543 28.9921L114.566 28.6879ZM114.33 31.528C114.33 33.3377 114.715 34.8953 115.781 35.8553L117.119 34.3687C116.693 33.9847 116.33 33.153 116.33 31.528H114.33ZM115.821 35.8892C116.843 36.7167 118.198 37.064 119.754 37.064V35.064C118.473 35.064 117.625 34.7767 117.079 34.3348L115.821 35.8892ZM119.754 37.064C121.325 37.064 122.914 36.7121 124.513 36.0323L123.731 34.1917C122.344 34.7813 121.021 35.064 119.754 35.064V37.064ZM124.524 36.0276C126.176 35.3027 127.451 34.3298 128.225 33.055L126.515 32.017C126.02 32.8329 125.13 33.5773 123.72 34.1964L124.524 36.0276ZM115.946 27.432C118.82 27.432 121.196 26.5321 122.95 24.6497L121.487 23.2863C120.179 24.6892 118.374 25.432 115.946 25.432V27.432ZM122.934 24.6665C124.673 22.8849 125.514 20.5864 125.514 17.864H123.514C123.514 20.1443 122.825 21.9151 121.503 23.2695L122.934 24.6665ZM125.514 17.864C125.514 16.8977 125.329 15.9955 124.81 15.304L123.21 16.504C123.364 16.7085 123.514 17.113 123.514 17.864H125.514ZM124.862 15.3799C124.358 14.5608 123.545 14.176 122.61 14.176V16.176C122.945 16.176 123.065 16.2765 123.159 16.4281L124.862 15.3799ZM122.61 14.176C121.834 14.176 121.091 14.337 120.395 14.6618L121.241 16.4742C121.665 16.2763 122.118 16.176 122.61 16.176V14.176ZM120.424 14.6489C119.639 14.9853 118.965 15.6971 118.368 16.5727L120.021 17.6993C120.544 16.9322 120.952 16.5987 121.212 16.4871L120.424 14.6489ZM118.39 16.5412C116.868 18.598 115.753 21.8841 114.962 26.2539L116.93 26.6101C117.707 22.3186 118.757 19.4074 119.998 17.7308L118.39 16.5412ZM152.751 23.576L151.83 23.1864L151.464 24.0507L152.304 24.4704L152.751 23.576ZM153.535 20.328L152.542 20.2077L152.541 20.2211L152.539 20.2347L153.535 20.328ZM149.727 17.024L148.991 16.3469L148.984 16.3551L148.976 16.3634L149.727 17.024ZM147.431 20.608L146.532 20.17L146.528 20.1775L146.525 20.1851L147.431 20.608ZM146.143 34.832L145.372 35.4689L145.379 35.4773L145.386 35.4856L146.143 34.832ZM155.383 33.376L156.105 34.0679L156.122 34.0498L156.139 34.0309L155.383 33.376ZM156.503 31.584L156.969 30.6991L155.997 30.1874L155.578 31.2032L156.503 31.584ZM155.159 40.992L155.67 41.8519L155.671 41.8507L155.159 40.992ZM139.479 17.248L140.19 17.9512L140.194 17.9469L139.479 17.248ZM160.991 18.704C160.991 19.9417 160.499 20.9188 159.435 21.7093L160.627 23.3147C162.177 22.1639 162.991 20.6023 162.991 18.704H160.991ZM159.435 21.7093C158.347 22.5174 156.858 22.968 154.879 22.968V24.968C157.156 24.968 159.102 24.4479 160.627 23.3147L159.435 21.7093ZM154.879 22.968C154.063 22.968 153.528 22.8463 153.198 22.6816L152.304 24.4704C153.02 24.8284 153.903 24.968 154.879 24.968V22.968ZM153.672 23.9656C154.128 22.8886 154.41 21.7041 154.531 20.4213L152.539 20.2347C152.436 21.3412 152.196 22.3221 151.83 23.1864L153.672 23.9656ZM154.528 20.4483C154.675 19.2355 154.759 18.3852 154.759 17.976H152.759C152.759 18.2388 152.694 18.9565 152.542 20.2077L154.528 20.4483ZM154.759 17.976C154.759 17.1079 154.615 16.2794 154.176 15.6438C153.691 14.9413 152.953 14.624 152.135 14.624V16.624C152.4 16.624 152.474 16.6987 152.53 16.7802C152.633 16.9286 152.759 17.2761 152.759 17.976H154.759ZM152.135 14.624C150.965 14.624 149.913 15.3443 148.991 16.3469L150.463 17.7011C151.258 16.837 151.811 16.624 152.135 16.624V14.624ZM148.976 16.3634C148.081 17.3807 147.269 18.6564 146.532 20.17L148.33 21.046C149.011 19.6476 149.73 18.534 150.478 17.6846L148.976 16.3634ZM146.525 20.1851C144.901 23.6653 144.079 27.1876 144.079 30.744H146.079C146.079 27.5057 146.825 24.2707 148.337 21.0309L146.525 20.1851ZM144.079 30.744C144.079 32.6988 144.443 34.3446 145.372 35.4689L146.914 34.1951C146.424 33.602 146.079 32.5226 146.079 30.744H144.079ZM145.386 35.4856C146.358 36.6106 147.833 37.064 149.559 37.064V35.064C148.149 35.064 147.347 34.696 146.9 34.1784L145.386 35.4856ZM149.559 37.064C152.038 37.064 154.229 36.0253 156.105 34.0679L154.661 32.6841C153.102 34.3107 151.411 35.064 149.559 35.064V37.064ZM156.139 34.0309C156.689 33.3958 157.122 32.707 157.428 31.9647L155.578 31.2032C155.361 31.7303 155.047 32.2362 154.627 32.7211L156.139 34.0309ZM156.037 32.4689C157.031 32.9922 157.631 33.9794 157.631 35.784H159.631C159.631 33.4819 158.812 31.6691 156.969 30.6991L156.037 32.4689ZM157.631 35.784C157.631 37.4198 156.759 38.8726 154.647 40.1333L155.671 41.8507C158.188 40.3487 159.631 38.3296 159.631 35.784H157.631ZM154.648 40.1321C152.461 41.4312 149.555 42.12 145.863 42.12V44.12C149.787 44.12 153.079 43.3901 155.67 41.8519L154.648 40.1321ZM145.863 42.12C142.243 42.12 139.708 41.1643 138.064 39.4235C136.41 37.6719 135.495 34.953 135.495 31.08H133.495C133.495 35.2336 134.474 38.5348 136.61 40.7965C138.756 43.0691 141.904 44.12 145.863 44.12V42.12ZM135.495 31.08C135.495 25.415 137.095 21.0812 140.19 17.9511L138.768 16.5449C135.218 20.1348 133.495 25.0223 133.495 31.08H135.495ZM140.194 17.9469C143.167 14.9049 147.433 13.32 153.143 13.32V11.32C147.055 11.32 142.212 13.0205 138.764 16.5491L140.194 17.9469ZM153.143 13.32C156.002 13.32 157.966 13.8411 159.194 14.7269C160.361 15.5692 160.991 16.8349 160.991 18.704H162.991C162.991 16.3171 162.146 14.3908 160.364 13.105C158.643 11.8629 156.183 11.32 153.143 11.32V13.32ZM194.167 38.976L195.126 39.261L195.413 38.295L194.445 38.0153L194.167 38.976ZM191.143 42.168L190.722 41.2613L190.716 41.2638L191.143 42.168ZM183.527 42.504L183.991 41.6182L183.983 41.6138L183.975 41.6096L183.527 42.504ZM181.791 40.992L182.631 40.4487L182.622 40.4356L182.614 40.4228L181.791 40.992ZM181.679 30.688L182.66 30.8841L182.661 30.8766L182.663 30.8692L181.679 30.688ZM182.463 26.432L181.482 26.2402L181.48 26.2508L182.463 26.432ZM178.095 19.824L179.006 20.2378L179.011 20.2257L178.095 19.824ZM177.143 22.904L176.165 22.6965L176.163 22.7084L177.143 22.904ZM173.335 42L173.434 42.9951L174.171 42.9218L174.316 42.1956L173.335 42ZM162.079 43.12L161.098 42.9278L160.839 44.2483L162.178 44.1151L162.079 43.12ZM169.975 2.8L169.876 1.80491L169.137 1.8785L168.994 2.60781L169.975 2.8ZM181.231 1.68L182.212 1.87611L182.477 0.551122L181.132 0.684912L181.231 1.68ZM180.783 3.92L179.803 3.72388L179.801 3.73248L179.799 3.74111L180.783 3.92ZM177.871 15.456L176.963 15.0369L178.578 16.1631L177.871 15.456ZM193.999 16.352L193.036 16.6196L193.039 16.6314L193.043 16.6432L193.999 16.352ZM194.279 20.776L193.287 20.652L193.283 20.6806L193.282 20.7095L194.279 20.776ZM193.943 23.184L194.927 23.3617L194.928 23.3598L193.943 23.184ZM193.215 27.216L194.195 27.4155L194.197 27.4046L194.199 27.3937L193.215 27.216ZM191.927 33.544L192.905 33.7564L192.907 33.7434L191.927 33.544ZM190.647 35.784C190.647 36.7811 190.905 37.6901 191.492 38.4336C192.075 39.1713 192.907 39.6529 193.89 39.9367L194.445 38.0153C193.747 37.8138 193.32 37.5207 193.062 37.1944C192.809 36.8739 192.647 36.4296 192.647 35.784H190.647ZM193.209 38.691C192.898 39.7364 192.132 40.6055 190.722 41.2613L191.565 43.0747C193.366 42.2372 194.615 40.9782 195.126 39.261L193.209 38.691ZM190.716 41.2638C189.507 41.8351 188.234 42.12 186.887 42.12V44.12C188.528 44.12 190.092 43.7703 191.57 43.0722L190.716 41.2638ZM186.887 42.12C185.501 42.12 184.568 41.9203 183.991 41.6182L183.063 43.3898C184.054 43.909 185.362 44.12 186.887 44.12V42.12ZM183.975 41.6096C183.371 41.3076 182.935 40.9181 182.631 40.4487L180.952 41.5353C181.469 42.3352 182.191 42.9538 183.08 43.3984L183.975 41.6096ZM182.614 40.4228C182.105 39.6882 181.783 38.5219 181.783 36.792H179.783C179.783 38.7208 180.134 40.3545 180.969 41.5612L182.614 40.4228ZM181.783 36.792C181.783 35.8232 182.06 33.8827 182.66 30.8841L180.699 30.4919C180.104 33.4666 179.783 35.5954 179.783 36.792H181.783ZM182.663 30.8692L183.447 26.6132L181.48 26.2508L180.696 30.5068L182.663 30.8692ZM183.445 26.6238C184.077 23.3863 184.415 21.0736 184.415 19.768H182.415C182.415 20.8518 182.119 22.9817 181.482 26.2402L183.445 26.6238ZM184.415 19.768C184.415 18.6632 184.268 17.6757 183.856 16.9317C183.642 16.5446 183.347 16.2075 182.955 15.9713C182.561 15.7342 182.124 15.632 181.679 15.632V17.632C181.813 17.632 181.883 17.6605 181.923 17.6847C181.965 17.7098 182.031 17.7648 182.106 17.9003C182.273 18.2016 182.415 18.7822 182.415 19.768H184.415ZM181.679 15.632C179.617 15.632 178.167 17.1718 177.18 19.4223L179.011 20.2257C179.891 18.2202 180.83 17.632 181.679 17.632V15.632ZM177.185 19.4102C176.772 20.3178 176.436 21.4191 176.165 22.6965L178.122 23.1115C178.373 21.9249 178.672 20.9728 179.006 20.2378L177.185 19.4102ZM176.163 22.7084L172.355 41.8044L174.316 42.1956L178.124 23.0996L176.163 22.7084ZM173.236 41.0049L161.98 42.1249L162.178 44.1151L173.434 42.9951L173.236 41.0049ZM163.061 43.3122L170.957 2.99218L168.994 2.60781L161.098 42.9278L163.061 43.3122ZM170.074 3.79508L181.33 2.67508L181.132 0.684912L169.876 1.80491L170.074 3.79508ZM180.251 1.48388L179.803 3.72388L181.764 4.11612L182.212 1.87611L180.251 1.48388ZM179.799 3.74111C178.752 9.50335 177.799 13.2273 176.963 15.0369L178.779 15.8751C179.736 13.802 180.724 9.83531 181.767 4.09889L179.799 3.74111ZM178.578 16.1631C180.43 14.3115 183.112 13.32 186.775 13.32V11.32C182.748 11.32 179.494 12.4191 177.164 14.7489L178.578 16.1631ZM186.775 13.32C188.715 13.32 190.145 13.6427 191.146 14.2012C192.114 14.7413 192.733 15.5296 193.036 16.6196L194.963 16.0844C194.519 14.4864 193.561 13.2587 192.121 12.4548C190.713 11.6693 188.905 11.32 186.775 11.32V13.32ZM193.043 16.6432C193.281 17.4259 193.391 18.1296 193.391 18.76H195.391C195.391 17.8971 195.24 16.9955 194.956 16.0608L193.043 16.6432ZM193.391 18.76C193.391 19.4746 193.356 20.1042 193.287 20.652L195.272 20.9C195.352 20.2532 195.391 19.5387 195.391 18.76H193.391ZM193.282 20.7095C193.248 21.2137 193.144 21.9732 192.959 23.0082L194.928 23.3598C195.116 22.3041 195.236 21.4583 195.277 20.8425L193.282 20.7095ZM192.959 23.0063L192.231 27.0383L194.199 27.3937L194.927 23.3617L192.959 23.0063ZM192.235 27.0165L190.947 33.3445L192.907 33.7434L194.195 27.4155L192.235 27.0165ZM190.95 33.3316C190.754 34.2355 190.647 35.0566 190.647 35.784H192.647C192.647 35.2421 192.728 34.5698 192.905 33.7564L190.95 33.3316Z" fill="#FCFCFC"/>
</g>
<defs>
<filter id="filter0_d" x="0.293854" y="0.551117" width="195.619" height="57.5889" filterUnits="userSpaceOnUse" color-interpolation-filters="sRGB">
<feFlood flood-opacity="0" result="BackgroundImageFix"/>
<feColorMatrix in="SourceAlpha" type="matrix" values="0 0 0 0 0 0 0 0 0 0 0 0 0 0 0 0 0 0 127 0"/>
<feOffset dy="4"/>
<feGaussianBlur stdDeviation="0.25"/>
<feColorMatrix type="matrix" values="0 0 0 0 0 0 0 0 0 0 0 0 0 0 0 0 0 0 0.1 0"/>
<feBlend mode="normal" in2="BackgroundImageFix" result="effect1_dropShadow"/>
<feBlend mode="normal" in="SourceGraphic" in2="effect1_dropShadow" result="shape"/>
</filter>
</defs>
</svg>
